<svg width="150" height="98" viewBox="0 0 150 98" fill="none" xmlns="http://www.w3.org/2000/svg">
<rect width="150" height="98" rx="4" fill="#FAFAFA"/>
<path d="M16.0341 41H10.7614L18.7955 17.7273H25.1364L33.1591 41H27.8864L22.0568 23.0455H21.875L16.0341 41ZM15.7045 31.8523H28.1591V35.6932H15.7045V31.8523ZM31.5901 21.7841V17.7273H50.7038V21.7841H43.5788V41H38.7151V21.7841H31.5901ZM53.2115 41V17.7273H58.1319V27.3295H68.1206V17.7273H73.0297V41H68.1206V31.3864H58.1319V41H53.2115ZM80.4578 41H75.1851L83.2192 17.7273H89.5601L97.5828 41H92.3101L86.4806 23.0455H86.2988L80.4578 41ZM80.1283 31.8523H92.5828V35.6932H80.1283V31.8523ZM96.0053 17.7273H101.517L106.824 27.75H107.051L112.358 17.7273H117.869L109.38 32.7727V41H104.494V32.7727L96.0053 17.7273ZM121.553 41H116.28L124.314 17.7273H130.655L138.678 41H133.405L127.576 23.0455H127.394L121.553 41ZM121.223 31.8523H133.678V35.6932H121.223V31.8523ZM24.6477 63.4205C24.5568 62.5038 24.1667 61.7917 23.4773 61.2841C22.7879 60.7765 21.8523 60.5227 20.6705 60.5227C19.8674 60.5227 19.1894 60.6364 18.6364 60.8636C18.0833 61.0833 17.6591 61.3902 17.3636 61.7841C17.0758 62.178 16.9318 62.625 16.9318 63.125C16.9167 63.5417 17.0038 63.9053 17.1932 64.2159C17.3902 64.5265 17.6591 64.7955 18 65.0227C18.3409 65.2424 18.7348 65.4356 19.1818 65.6023C19.6288 65.7614 20.1061 65.8977 20.6136 66.0114L22.7045 66.5114C23.7197 66.7386 24.6515 67.0417 25.5 67.4205C26.3485 67.7992 27.0833 68.2652 27.7045 68.8182C28.3258 69.3712 28.8068 70.0227 29.1477 70.7727C29.4962 71.5227 29.6742 72.3826 29.6818 73.3523C29.6742 74.7765 29.3106 76.0114 28.5909 77.0568C27.8788 78.0947 26.8485 78.9015 25.5 79.4773C24.1591 80.0455 22.5417 80.3295 20.6477 80.3295C18.7689 80.3295 17.1326 80.0417 15.7386 79.4659C14.3523 78.8902 13.2689 78.0379 12.4886 76.9091C11.7159 75.7727 11.3106 74.3674 11.2727 72.6932H16.0341C16.0871 73.4735 16.3106 74.125 16.7045 74.6477C17.1061 75.1629 17.6402 75.553 18.3068 75.8182C18.9811 76.0758 19.7424 76.2045 20.5909 76.2045C21.4242 76.2045 22.1477 76.0833 22.7614 75.8409C23.3826 75.5985 23.8636 75.2614 24.2045 74.8295C24.5455 74.3977 24.7159 73.9015 24.7159 73.3409C24.7159 72.8182 24.5606 72.3788 24.25 72.0227C23.947 71.6667 23.5 71.3636 22.9091 71.1136C22.3258 70.8636 21.6098 70.6364 20.7614 70.4318L18.2273 69.7955C16.2652 69.3182 14.7159 68.572 13.5795 67.5568C12.4432 66.5417 11.8788 65.1742 11.8864 63.4545C11.8788 62.0455 12.2538 60.8144 13.0114 59.7614C13.7765 58.7083 14.8258 57.8864 16.1591 57.2955C17.4924 56.7045 19.0076 56.4091 20.7045 56.4091C22.4318 56.4091 23.9394 56.7045 25.2273 57.2955C26.5227 57.8864 27.5303 58.7083 28.25 59.7614C28.9697 60.8144 29.3409 62.0341 29.3636 63.4205H24.6477ZM32.3515 80V56.7273H37.2719V66.3295H47.2606V56.7273H52.1697V80H47.2606V70.3864H37.2719V80H32.3515ZM76.9728 68.3636C76.9728 70.9015 76.4918 73.0606 75.5297 74.8409C74.5751 76.6212 73.2721 77.9811 71.6206 78.9205C69.9766 79.8523 68.1281 80.3182 66.0751 80.3182C64.0069 80.3182 62.1509 79.8485 60.5069 78.9091C58.863 77.9697 57.5638 76.6098 56.6092 74.8295C55.6547 73.0492 55.1774 70.8939 55.1774 68.3636C55.1774 65.8258 55.6547 63.6667 56.6092 61.8864C57.5638 60.1061 58.863 58.75 60.5069 57.8182C62.1509 56.8788 64.0069 56.4091 66.0751 56.4091C68.1281 56.4091 69.9766 56.8788 71.6206 57.8182C73.2721 58.75 74.5751 60.1061 75.5297 61.8864C76.4918 63.6667 76.9728 65.8258 76.9728 68.3636ZM71.9842 68.3636C71.9842 66.7197 71.738 65.3333 71.2456 64.2045C70.7607 63.0758 70.0751 62.2197 69.1888 61.6364C68.3024 61.053 67.2645 60.7614 66.0751 60.7614C64.8857 60.7614 63.8478 61.053 62.9615 61.6364C62.0751 62.2197 61.3857 63.0758 60.8933 64.2045C60.4084 65.3333 60.166 66.7197 60.166 68.3636C60.166 70.0076 60.4084 71.3939 60.8933 72.5227C61.3857 73.6515 62.0751 74.5076 62.9615 75.0909C63.8478 75.6742 64.8857 75.9659 66.0751 75.9659C67.2645 75.9659 68.3024 75.6742 69.1888 75.0909C70.0751 74.5076 70.7607 73.6515 71.2456 72.5227C71.738 71.3939 71.9842 70.0076 71.9842 68.3636ZM79.9777 80V56.7273H89.1595C90.9247 56.7273 92.4285 57.0644 93.6709 57.7386C94.9133 58.4053 95.8603 59.3333 96.5118 60.5227C97.1709 61.7045 97.5005 63.0682 97.5005 64.6136C97.5005 66.1591 97.1671 67.5227 96.5005 68.7045C95.8338 69.8864 94.8679 70.8068 93.6027 71.4659C92.3452 72.125 90.8224 72.4545 89.0345 72.4545H83.1823V68.5114H88.2391C89.1861 68.5114 89.9664 68.3485 90.58 68.0227C91.2012 67.6894 91.6633 67.2311 91.9664 66.6477C92.277 66.0568 92.4323 65.3788 92.4323 64.6136C92.4323 63.8409 92.277 63.1667 91.9664 62.5909C91.6633 62.0076 91.2012 61.5568 90.58 61.2386C89.9588 60.9129 89.1709 60.75 88.2164 60.75H84.8982V80H79.9777Z" fill="black"/>
</svg>
